{"title":"Step Up 3D 2010 TS XVID FEEL-FREE","uid":5769725,"size":994874665,"categoryP":"video","categoryS":"movies","magnet":"?xt=urn:btih:931c8b4e54366b1a16bb846d1e1df889aadc95e6&amp;dn=Step+Up+3D+2010+TS+XVID+FEEL-FREE&amp;tr=udp%3A%2F%2Ftracker.openbittorrent.com%3A80&amp;tr=udp%3A%2F%2Fopen.demonii.com%3A1337&amp;tr=udp%3A%2F%2Ftracker.coppersurfer.tk%3A6969&amp;tr=udp%3A%2F%2Fexodus.desync.com%3A6969","seeders":0,"leechers":0,"uploader":"hiest","files":-1,"time":1282052085,"description":"Genre:Drama | Music | Romance\nLanguage:English\nIMDb:http://www.imdb.com/title/tt1193631/\nSource: RUS.Thanks\nSource audio:Boobies.Thanks\n..........................................\nGeneral\nComplete name : Step Up 3D 2010 TS XVID FEEL-FREE\nFormat : AVI\nFormat/Info : Audio Video Interleave\nFile size : 947 MiB\nDuration : 1h 38mn\nOverall bit rate : 1 341 Kbps\n..........................................\nVideo\nFormat : xvid\nCodec ID : xvid\nDuration : 1h 38mn\nBit rate : 1 200 Kbps\nWidth : 688 pixels\nHeight : 288 pixels\nDisplay aspect ratio : 2.35:1\nFrame rate : 29.970 fps\nResolution : 24 bits\nBits/(Pixel*Frame) : 0.202\nStream size : 847 MiB (89%)\n..........................................\nAudio\nID : 1\nFormat : MPEG Audio\nFormat version : Version 1\nFormat profile : Layer 3\nFormat settings, Mode : Joint stereo / MS Stereo\nCodec ID : 55\nCodec ID/Hint : MP3\nDuration : 1h 38mn\nBit rate mode : Constant\nBit rate : 128 Kbps\nChannel(s) : 2 channels\nSampling rate : 44.1 KHz\nResolution : 16 bits\nStream size : 90.4 MiB (10%)\nAlignment : Aligned on interleaves\nInterleave, duration : 26 ms (0.78 video frame)\nInterleave, preload duration : 26 ms\n.........................................\nPlot:\nA tight-knit group of New York City street dancers, including Luke (Malambri) and Natalie (Vinson), team up with NYU freshman Moose (Sevani)\n..........................................\n\nScreenshots:\n &lt;a href=&quot;\nhttp://postimg.com/image/20000/19879.jpg&quot; rel=&quot;nofollow&quot; target=&quot;_NEW&quot;&gt;\nhttp://postimg.com/image/20000/19879.jpg&lt;/a&gt;\n &lt;a href=&quot;\nhttp://postimg.com/image/20000/19880.jpg&quot; rel=&quot;nofollow&quot; target=&quot;_NEW&quot;&gt;\nhttp://postimg.com/image/20000/19880.jpg&lt;/a&gt;\n\n\n...........................................","torrent":{"xt":"urn:btih:931c8b4e54366b1a16bb846d1e1df889aadc95e6","amp;dn":"Step+Up+3D+2010+TS+XVID+FEEL-FREE","amp;tr":["udp%3A%2F%2Ftracker.openbittorrent.com%3A80","udp%3A%2F%2Fopen.demonii.com%3A1337","udp%3A%2F%2Ftracker.coppersurfer.tk%3A6969","udp%3A%2F%2Fexodus.desync.com%3A6969"],"infoHash":"931c8b4e54366b1a16bb846d1e1df889aadc95e6","infoHashBuffer":{"type":"Buffer","data":[147,28,139,78,84,54,107,26,22,187,132,109,30,29,248,137,170,220,149,230]},"announce":[],"urlList":[]}}